<svg width="18" height="18" viewBox="0 0 18 18" fill="none" xmlns="http://www.w3.org/2000/svg">
<g clip-path="url(#clip0_612_7729)">
<path fill-rule="evenodd" clip-rule="evenodd" d="M13.3201 1.80002C12.724 1.80002 12.1524 2.03993 11.7309 2.46698L2.73095 11.5864C2.63867 11.6799 2.57321 11.797 2.54156 11.9253L1.82156 14.8435C1.76022 15.0921 1.83211 15.3551 2.01095 15.5363C2.18978 15.7175 2.44933 15.7904 2.69469 15.7282L5.57469 14.9987C5.70128 14.9666 5.8169 14.9003 5.90918 14.8068L14.9092 5.68738C15.1179 5.47593 15.2834 5.22489 15.3963 4.94861C15.5093 4.67234 15.5674 4.37622 15.5674 4.07718C15.5674 3.77814 15.5093 3.48203 15.3963 3.20575C15.2834 2.92947 15.1179 2.67844 14.9092 2.46698C14.7005 2.25553 14.4527 2.0878 14.1801 1.97336C13.9074 1.85892 13.6152 1.80002 13.3201 1.80002ZM12.7492 3.49873C12.9006 3.34531 13.1059 3.25912 13.3201 3.25912C13.4261 3.25912 13.5311 3.28028 13.629 3.32139C13.727 3.3625 13.816 3.42276 13.8909 3.49873C13.9659 3.57469 14.0254 3.66487 14.0659 3.76412C14.1065 3.86338 14.1274 3.96975 14.1274 4.07718C14.1274 4.18461 14.1065 4.29099 14.0659 4.39024C14.0254 4.48949 13.9659 4.57967 13.8909 4.65564L5.03196 13.6321L3.50961 14.0178L3.8902 12.4752L12.7492 3.49873Z" fill="#646464"/>
<path d="M9.00006 14.2909C8.60241 14.2909 8.28006 14.6175 8.28006 15.0205C8.28006 15.4234 8.60241 15.75 9.00006 15.75H15.4801C15.8777 15.75 16.2 15.4234 16.2 15.0205C16.2 14.6175 15.8777 14.2909 15.4801 14.2909H9.00006Z" fill="#646464"/>
</g>
<defs>
<clipPath id="clip0_612_7729">
<rect width="18" height="18" fill="white"/>
</clipPath>
</defs>
</svg>
