<svg width="36" height="36" viewBox="0 0 36 36" fill="none" xmlns="http://www.w3.org/2000/svg">
<g clip-path="url(#clip0_674_1359)">
<path fill-rule="evenodd" clip-rule="evenodd" d="M18 10.6216C15.5969 10.6216 15.3122 10.6308 14.3632 10.6741C13.4857 10.7141 13.0092 10.8607 12.6921 10.984C12.272 11.1472 11.9722 11.3423 11.6572 11.6572C11.3423 11.9722 11.1472 12.272 10.984 12.6921C10.8607 13.0092 10.7141 13.4857 10.6741 14.3632C10.6308 15.3122 10.6216 15.5969 10.6216 18C10.6216 20.4031 10.6308 20.6878 10.6741 21.6368C10.7141 22.5143 10.8607 22.9908 10.984 23.3079C11.1472 23.728 11.3423 24.0278 11.6572 24.3428C11.9722 24.6577 12.272 24.8528 12.6921 25.016C13.0092 25.1393 13.4857 25.2859 14.3632 25.3259C15.3121 25.3692 15.5967 25.3784 18 25.3784C20.4033 25.3784 20.6879 25.3692 21.6368 25.3259C22.5143 25.2859 22.9908 25.1393 23.3079 25.016C23.728 24.8528 24.0278 24.6577 24.3428 24.3428C24.6577 24.0278 24.8528 23.728 25.016 23.3079C25.1393 22.9908 25.2859 22.5143 25.3259 21.6368C25.3692 20.6878 25.3784 20.4031 25.3784 18C25.3784 15.5969 25.3692 15.3122 25.3259 14.3632C25.2859 13.4857 25.1393 13.0092 25.016 12.6921C24.8528 12.272 24.6577 11.9722 24.3428 11.6572C24.0278 11.3423 23.728 11.1472 23.3079 10.984C22.9908 10.8607 22.5143 10.7141 21.6368 10.6741C20.6878 10.6308 20.4031 10.6216 18 10.6216ZM22.6216 18C22.6216 15.4475 20.5525 13.3784 18 13.3784C15.4475 13.3784 13.3784 15.4475 13.3784 18C13.3784 20.5525 15.4475 22.6216 18 22.6216C20.5525 22.6216 22.6216 20.5525 22.6216 18ZM22.8042 14.2758C23.4007 14.2758 23.8842 13.7923 23.8842 13.1958C23.8842 12.5993 23.4007 12.1158 22.8042 12.1158C22.2078 12.1158 21.7242 12.5993 21.7242 13.1958C21.7242 13.7923 22.2078 14.2758 22.8042 14.2758Z" fill="white"/>
<path d="M18 21C19.6569 21 21 19.6569 21 18C21 16.3431 19.6569 15 18 15C16.3431 15 15 16.3431 15 18C15 19.6569 16.3431 21 18 21Z" fill="white"/>
<path fill-rule="evenodd" clip-rule="evenodd" d="M18 9C20.4443 9 20.7507 9.01036 21.7107 9.05416C22.6686 9.09785 23.3229 9.25001 23.8953 9.47251C24.4872 9.70247 24.9891 10.0102 25.4895 10.5105C25.9898 11.0109 26.2975 11.5128 26.5275 12.1047C26.75 12.6771 26.9021 13.3314 26.9458 14.2893C26.9896 15.2493 27 15.5557 27 18C27 20.4443 26.9896 20.7507 26.9458 21.7107C26.9021 22.6686 26.75 23.3229 26.5275 23.8953C26.2975 24.4872 25.9898 24.9891 25.4895 25.4895C24.9891 25.9898 24.4872 26.2975 23.8953 26.5275C23.3229 26.75 22.6686 26.9021 21.7107 26.9458C20.7507 26.9896 20.4443 27 18 27C15.5557 27 15.2493 26.9896 14.2893 26.9458C13.3314 26.9021 12.6771 26.75 12.1047 26.5275C11.5128 26.2975 11.0109 25.9898 10.5105 25.4895C10.0102 24.9891 9.70247 24.4872 9.47251 23.8953C9.25001 23.3229 9.09785 22.6686 9.05416 21.7107C9.01036 20.7507 9 20.4443 9 18C9 15.5557 9.01036 15.2493 9.05416 14.2893C9.09785 13.3314 9.25001 12.6771 9.47251 12.1047C9.70247 11.5128 10.0102 11.0109 10.5105 10.5105C11.0109 10.0102 11.5128 9.70247 12.1047 9.47251C12.6771 9.25001 13.3314 9.09785 14.2893 9.05416C15.2493 9.01036 15.5557 9 18 9ZM18 10.6216C15.5969 10.6216 15.3122 10.6308 14.3632 10.6741C13.4857 10.7141 13.0092 10.8607 12.6921 10.984C12.272 11.1472 11.9722 11.3423 11.6572 11.6572C11.3423 11.9722 11.1472 12.272 10.984 12.6921C10.8607 13.0092 10.7141 13.4857 10.6741 14.3632C10.6308 15.3122 10.6216 15.5969 10.6216 18C10.6216 20.4031 10.6308 20.6878 10.6741 21.6368C10.7141 22.5143 10.8607 22.9908 10.984 23.3079C11.1472 23.728 11.3423 24.0278 11.6572 24.3428C11.9722 24.6577 12.272 24.8528 12.6921 25.016C13.0092 25.1393 13.4857 25.2859 14.3632 25.3259C15.3121 25.3692 15.5967 25.3784 18 25.3784C20.4033 25.3784 20.6879 25.3692 21.6368 25.3259C22.5143 25.2859 22.9908 25.1393 23.3079 25.016C23.728 24.8528 24.0278 24.6577 24.3428 24.3428C24.6577 24.0278 24.8528 23.728 25.016 23.3079C25.1393 22.9908 25.2859 22.5143 25.3259 21.6368C25.3692 20.6878 25.3784 20.4031 25.3784 18C25.3784 15.5969 25.3692 15.3122 25.3259 14.3632C25.2859 13.4857 25.1393 13.0092 25.016 12.6921C24.8528 12.272 24.6577 11.9722 24.3428 11.6572C24.0278 11.3423 23.728 11.1472 23.3079 10.984C22.9908 10.8607 22.5143 10.7141 21.6368 10.6741C20.6878 10.6308 20.4031 10.6216 18 10.6216Z" fill="white"/>
</g>
<defs>
<clipPath id="clip0_674_1359">
<rect width="36" height="36" fill="white"/>
</clipPath>
</defs>
</svg>
