<svg width="18" height="18" viewBox="0 0 18 18" fill="none" xmlns="http://www.w3.org/2000/svg">
<g clip-path="url(#clip0_612_7710)">
<path fill-rule="evenodd" clip-rule="evenodd" d="M3.96005 1.79999C3.38718 1.79999 2.83778 2.02756 2.4327 2.43264C2.02762 2.83772 1.80005 3.38712 1.80005 3.95999V14.04C1.80005 14.6129 2.02762 15.1623 2.4327 15.5673C2.83778 15.9724 3.38718 16.2 3.96005 16.2H14.04C14.6129 16.2 15.1623 15.9724 15.5674 15.5673C15.9725 15.1623 16.2 14.6129 16.2 14.04V6.11999C16.2 5.92903 16.1242 5.7459 15.9892 5.61087L12.3892 2.01087C12.2541 1.87584 12.071 1.79999 11.88 1.79999H3.96005ZM3.96005 3.23999C3.76909 3.23999 3.58596 3.31584 3.45093 3.45087C3.31591 3.5859 3.24005 3.76903 3.24005 3.95999V14.04C3.24005 14.2309 3.31591 14.4141 3.45093 14.5491C3.58596 14.6841 3.76909 14.76 3.96005 14.76H4.68005V9.71999C4.68005 9.32234 5.0024 8.99999 5.40005 8.99999H12.6C12.9977 8.99999 13.32 9.32234 13.32 9.71999V14.76H14.04C14.231 14.76 14.4141 14.6841 14.5492 14.5491C14.6842 14.4141 14.76 14.2309 14.76 14.04V6.41822L11.5818 3.23999H6.12005V5.39999H11.16C11.5577 5.39999 11.88 5.72234 11.88 6.11999C11.88 6.51763 11.5577 6.83999 11.16 6.83999H5.40005C5.0024 6.83999 4.68005 6.51763 4.68005 6.11999V3.23999H3.96005ZM6.12005 10.44V14.76H11.88V10.44H6.12005Z" fill="#646464"/>
</g>
<defs>
<clipPath id="clip0_612_7710">
<rect width="18" height="18" fill="white"/>
</clipPath>
</defs>
</svg>
