<svg width="18" height="18" viewBox="0 0 18 18" fill="none" xmlns="http://www.w3.org/2000/svg">
<g clip-path="url(#clip0_612_7702)">
<path fill-rule="evenodd" clip-rule="evenodd" d="M7.81942 1.80445C8.21463 1.84837 8.49941 2.20435 8.4555 2.59955L8.06434 6.12001H10.9354L11.3443 2.44053C11.3882 2.04533 11.7442 1.76054 12.1394 1.80445C12.5346 1.84837 12.8194 2.20435 12.7755 2.59955L12.3843 6.12001H14.9398C15.3375 6.12001 15.6598 6.44237 15.6598 6.84001C15.6598 7.23765 15.3375 7.56 14.9398 7.56H12.2243L11.9043 10.44H14.9398C15.3375 10.44 15.6598 10.7623 15.6598 11.16C15.6598 11.5576 15.3375 11.88 14.9398 11.88H11.7443L11.3355 15.5594C11.2916 15.9546 10.9356 16.2394 10.5404 16.1955C10.1452 16.1516 9.86038 15.7956 9.90429 15.4004L10.2955 11.88H7.42434L7.01551 15.5594C6.9716 15.9546 6.61562 16.2394 6.22041 16.1955C5.8252 16.1516 5.54042 15.7956 5.58433 15.4004L5.97549 11.88H3.41994C3.0223 11.88 2.69995 11.5576 2.69995 11.16C2.69995 10.7623 3.0223 10.44 3.41994 10.44H6.13549L6.45549 7.56H3.41994C3.0223 7.56 2.69995 7.23765 2.69995 6.84001C2.69995 6.44237 3.0223 6.12001 3.41994 6.12001H6.61549L7.02432 2.44053C7.06823 2.04533 7.42421 1.76054 7.81942 1.80445ZM10.4555 10.44L10.7754 7.56H7.90434L7.58434 10.44H10.4555Z" fill="#646464"/>
</g>
<defs>
<clipPath id="clip0_612_7702">
<rect width="18" height="18" fill="white"/>
</clipPath>
</defs>
</svg>
