<svg width="36" height="36" viewBox="0 0 36 36" fill="none" xmlns="http://www.w3.org/2000/svg">
<g clip-path="url(#clip0_674_6658)">
<path d="M11.1632 13.3334C10.8789 13.3338 10.5973 13.278 10.3346 13.1691C10.0719 13.0603 9.83323 12.9006 9.63227 12.6991C9.43131 12.4977 9.27201 12.2586 9.16352 11.9954C9.05502 11.7321 8.99945 11.4501 9 11.1653C9.00028 10.7368 9.12742 10.318 9.36534 9.96179C9.60327 9.60563 9.94129 9.32813 10.3367 9.1644C10.732 9.00066 11.167 8.95803 11.5866 9.04191C12.0061 9.12578 12.3914 9.33239 12.6938 9.63561C12.9961 9.93882 13.2019 10.325 13.2851 10.7454C13.3683 11.1657 13.3252 11.6014 13.1612 11.9972C12.9972 12.393 12.7197 12.7312 12.3638 12.9691C12.0079 13.2069 11.591 13.3337 11.1632 13.3334Z" fill="#646464"/>
<path d="M13.0301 27H9.29486V14.9781H13.0315V27H13.0301Z" fill="#646464"/>
<path d="M26.9986 27H23.2745V21.1535C23.2745 19.7594 23.2466 17.965 21.3321 17.965C19.3911 17.965 19.0949 19.4823 19.0949 21.0513V27H15.3694V14.9781H18.9467V16.6157H18.9957C19.4959 15.6723 20.7117 14.6743 22.5283 14.6743C26.3013 14.6743 27 17.163 27 20.4005V27H26.9986Z" fill="#646464"/>
</g>
<defs>
<clipPath id="clip0_674_6658">
<rect width="36" height="36" fill="white"/>
</clipPath>
</defs>
</svg>
