<svg width="18" height="18" viewBox="0 0 18 18" fill="none" xmlns="http://www.w3.org/2000/svg">
<g clip-path="url(#clip0_612_7718)">
<path d="M12.2868 1.80011C11.2518 1.7911 10.2547 2.18936 9.51014 2.90909L9.50334 2.91575L8.37172 4.04183C8.11404 4.29825 8.11283 4.7152 8.36901 4.97312C8.62519 5.23104 9.04176 5.23225 9.29944 4.97583L10.4275 3.8533C10.9235 3.37545 11.5869 3.11111 12.2754 3.1171C12.9654 3.1231 13.6255 3.40013 14.1134 3.88851C14.6013 4.37689 14.8781 5.03756 14.8841 5.72821C14.8901 6.41706 14.6262 7.08076 14.1492 7.57714L12.1797 9.54844C11.9129 9.81557 11.5918 10.0222 11.2382 10.1543C10.8846 10.2863 10.5068 10.3406 10.1304 10.3136C9.75402 10.2867 9.38781 10.179 9.05665 9.99787C8.72548 9.81677 8.4371 9.5665 8.21106 9.26404C7.99342 8.97281 7.58111 8.91332 7.29014 9.13116C6.99918 9.349 6.93974 9.76169 7.15738 10.0529C7.49644 10.5066 7.92901 10.882 8.42576 11.1537C8.92251 11.4253 9.47182 11.5868 10.0364 11.6273C10.601 11.6678 11.1677 11.5863 11.6981 11.3882C12.2284 11.1902 12.7101 10.8803 13.1102 10.4796L15.0839 8.50416L15.0919 8.496C15.811 7.75081 16.2089 6.75274 16.1999 5.71676C16.1909 4.68079 15.7757 3.68979 15.0438 2.95722C14.3119 2.22465 13.3219 1.80911 12.2868 1.80011Z" fill="#646464"/>
<path d="M7.96367 6.37259C7.39906 6.33212 6.83236 6.41366 6.302 6.61168C5.77168 6.80968 5.29011 7.11952 4.88994 7.52018L2.91618 9.49575L2.90816 9.50391C2.18909 10.2491 1.7912 11.2472 1.8002 12.2832C1.80919 13.3191 2.22435 14.3101 2.95625 15.0427C3.68815 15.7753 4.67824 16.1908 5.71327 16.1998C6.74829 16.2088 7.74545 15.8106 8.48996 15.0908L8.49811 15.0828L9.62315 13.9567C9.88009 13.6996 9.88009 13.2826 9.62315 13.0254C9.36622 12.7683 8.94965 12.7683 8.69271 13.0254L7.57193 14.1473C7.07601 14.6247 6.41291 14.8888 5.7247 14.8828C5.03468 14.8768 4.37462 14.5998 3.88669 14.1114C3.39876 13.623 3.12198 12.9624 3.11599 12.2717C3.11001 11.5829 3.37387 10.9191 3.85088 10.4228L5.82038 8.45148C6.08717 8.18434 6.40832 7.97768 6.76189 7.84566C7.11547 7.71365 7.49327 7.65929 7.86967 7.68627C8.24608 7.71326 8.61228 7.82095 8.94345 8.00205C9.27462 8.18314 9.563 8.43341 9.78903 8.73587C10.0067 9.02711 10.419 9.0866 10.71 8.86875C11.0009 8.65091 11.0604 8.23822 10.8427 7.94699C10.5037 7.4933 10.0711 7.1179 9.57434 6.84625C9.07758 6.5746 8.52828 6.41307 7.96367 6.37259Z" fill="#646464"/>
</g>
<defs>
<clipPath id="clip0_612_7718">
<rect width="18" height="18" fill="white"/>
</clipPath>
</defs>
</svg>
