<svg width="36" height="36" viewBox="0 0 36 36" fill="none" xmlns="http://www.w3.org/2000/svg">
<g clip-path="url(#clip0_674_6662)">
<path fill-rule="evenodd" clip-rule="evenodd" d="M16.1896 20.2167V15.4065C17.9826 16.2101 19.3712 16.9863 21.0136 17.8231C19.659 18.5386 17.9826 19.3414 16.1896 20.2167ZM26.1819 13.0142C25.8726 12.6262 25.3455 12.3241 24.7843 12.2241C23.1347 11.9257 12.8439 11.9249 11.1952 12.2241C10.7452 12.3044 10.3445 12.4986 10.0002 12.8004C8.54967 14.0826 9.0042 20.9586 9.35383 22.0724C9.50086 22.5545 9.69092 22.9022 9.93028 23.1304C10.2387 23.4322 10.6609 23.64 11.1459 23.7331C12.5041 24.0007 19.5012 24.1503 24.7556 23.7733C25.2397 23.693 25.6682 23.4785 26.0062 23.1639C27.3473 21.8869 27.2559 14.6247 26.1819 13.0142Z" fill="#646464"/>
</g>
<defs>
<clipPath id="clip0_674_6662">
<rect width="36" height="36" fill="white"/>
</clipPath>
</defs>
</svg>
